<?xml version="1.0" standalone="no"?>
<!DOCTYPE svg PUBLIC "-//W3C//DTD SVG 20010904//EN"
 "http://www.w3.org/TR/2001/REC-SVG-20010904/DTD/svg10.dtd">
<svg version="1.0" xmlns="http://www.w3.org/2000/svg"
 width="116.000000pt" height="116.000000pt" viewBox="0 0 116.000000 116.000000"
 preserveAspectRatio="xMidYMid meet">
<metadata>
Created by potrace 1.14, written by Peter Selinger 2001-2017
</metadata>
<g transform="translate(0.000000,116.000000) scale(0.100000,-0.100000)"
fill="#000000" stroke="none">
<path d="M230 1150 c0 -5 -6 -10 -13 -10 -7 0 -23 -11 -35 -25 -12 -14 -19
-25 -15 -25 4 0 2 -5 -5 -12 -7 -7 -12 -21 -12 -32 1 -15 6 -10 20 18 26 52
39 66 62 66 10 0 16 4 13 10 -3 6 1 7 9 4 9 -3 16 -1 16 5 0 6 -9 11 -20 11
-11 0 -20 -4 -20 -10z"/>
<path d="M283 1153 c5 -4 12 -8 15 -9 66 -8 119 -77 109 -141 -4 -25 -3 -33 4
-26 10 10 13 53 7 83 -6 25 -40 70 -61 81 -25 14 -85 24 -74 12z"/>
<path d="M254 1122 c-24 -3 -55 -35 -71 -72 -8 -20 -7 -34 9 -68 11 -23 24
-40 28 -37 5 3 10 -1 13 -7 2 -7 7 -10 11 -7 4 4 -5 19 -19 33 -14 14 -23 31
-20 36 3 6 2 10 -3 10 -5 0 -8 10 -7 21 2 26 52 82 65 74 6 -3 10 -1 10 5 0 8
6 8 20 0 16 -8 20 -8 20 4 0 14 -8 15 -56 8z"/>
<path d="M320 1117 c0 -2 11 -17 25 -33 24 -28 30 -47 25 -88 -1 -11 3 -16 10
-11 15 9 10 64 -9 93 -12 20 -51 49 -51 39z"/>
<path d="M280 1082 c-29 -4 -71 -42 -46 -42 7 0 16 7 20 15 7 20 43 19 63 0 8
-9 18 -13 21 -10 11 11 -34 40 -58 37z"/>
<path d="M267 1043 c-13 -12 -7 -33 14 -51 18 -15 37 -47 45 -77 1 -5 16 -41
34 -80 17 -38 35 -79 39 -90 25 -60 31 -78 29 -80 -2 -2 -48 -24 -103 -49 -55
-25 -107 -50 -115 -54 -21 -13 -24 -57 -5 -86 9 -14 16 -27 16 -30 0 -5 20
-48 131 -286 17 -36 39 -82 49 -102 l19 -37 -28 0 c-15 -1 -44 -1 -64 -1 -21
1 -38 -4 -38 -9 0 -13 448 -13 455 -1 3 5 -4 7 -15 5 -11 -2 -20 1 -20 7 0 7
-4 7 -12 1 -14 -10 -76 -10 -102 0 -9 4 -16 2 -16 -4 0 -6 -6 -6 -17 -1 -10 5
-26 8 -35 7 -10 -2 -18 1 -18 6 0 5 9 9 20 9 11 0 20 5 20 10 0 6 9 10 20 10
11 0 20 5 20 10 0 6 6 10 13 10 8 0 42 14 78 32 35 17 67 31 72 30 4 -1 7 3 7
10 0 6 3 9 6 5 5 -4 119 46 184 82 24 13 18 40 -32 148 -26 56 -48 107 -48
113 0 5 -4 10 -10 10 -5 0 -10 6 -10 13 0 8 -15 45 -34 83 -18 38 -43 90 -54
115 -20 44 -39 67 -54 68 -4 0 -60 -24 -124 -53 l-116 -53 -78 155 c-43 86
-76 162 -73 169 3 9 8 10 12 5 4 -6 11 -4 19 4 11 12 10 14 -5 15 -10 1 -21 1
-25 0 -5 0 -8 4 -8 9 0 11 -33 14 -43 3z"/>
<path d="M220 1022 c0 -12 30 -52 40 -52 5 0 1 13 -8 30 -16 28 -32 39 -32 22z"/>
<path d="M150 1003 c0 -37 60 -116 77 -100 2 2 -9 17 -23 32 -15 16 -33 43
-40 59 -11 26 -13 27 -14 9z"/>
</g>
</svg>
